<svg version="1.1" id="Layer_1" xmlns="http://www.w3.org/2000/svg" xmlns:xlink="http://www.w3.org/1999/xlink" x="0px" y="0px"
	 width="100%" viewBox="0 0 512 512" enable-background="new 0 0 512 512" xml:space="preserve">
<path fill="#000000" opacity="1.000000" stroke="none" 
	d="
M1.000002,199.000000 
	C1.000000,133.032333 1.000000,67.064674 1.000000,1.048505 
	C171.550705,1.048505 342.101440,1.048505 513.000000,1.048505 
	C513.000000,61.687119 513.000000,122.374901 512.647827,183.547546 
	C509.029358,180.124054 506.202026,175.708481 502.400635,172.418381 
	C495.567108,166.503876 486.958313,165.041840 478.190613,165.011826 
	C451.696320,164.921127 425.201569,164.982086 398.706970,164.975800 
	C392.009064,164.974213 392.005981,164.960297 391.994659,158.066238 
	C391.984253,151.734222 392.126465,145.397827 391.934998,139.071426 
	C391.738983,132.595078 389.057068,130.077133 382.658264,130.024612 
	C375.326904,129.964432 367.994720,130.007217 360.662872,130.007278 
	C340.333679,130.007446 320.004486,129.986038 299.675354,130.021835 
	C292.638763,130.034210 290.025757,132.650940 290.011139,139.493866 
	C289.995483,146.825668 289.824860,154.163818 290.078430,161.486847 
	C290.215973,165.458694 289.099640,167.392120 284.908051,168.328110 
	C273.279358,170.924774 261.768555,174.050964 250.217056,176.991119 
	C244.106873,178.546326 242.024460,181.237518 242.011719,187.568253 
	C241.992935,196.899628 242.118866,206.234085 241.878372,215.559402 
	C241.840195,217.039474 240.264557,219.695038 239.298462,219.742432 
	C232.042480,220.098297 224.761078,219.936310 217.581253,219.936310 
	C217.141357,217.896851 216.842529,216.605774 216.585739,215.306381 
	C214.119827,202.828171 206.948227,194.797699 194.045715,193.679520 
	C183.632202,192.777039 173.105637,193.170334 162.628922,193.008255 
	C149.653442,192.807510 139.804169,197.709305 134.306000,210.060257 
	C133.737488,211.337357 131.833038,212.790283 130.505936,212.832748 
	C122.515953,213.088409 114.507706,213.105835 106.521538,212.794052 
	C105.310616,212.746780 103.176872,210.575470 103.165932,209.371216 
	C102.962936,187.044418 102.978905,164.715042 103.128464,142.387390 
	C103.136208,141.231018 104.527985,139.422134 105.651344,139.049057 
	C110.627258,137.396484 112.342102,133.955627 111.970306,129.073837 
	C111.621826,124.498154 108.768822,121.917946 104.553719,121.845619 
	C84.782211,121.506363 64.999084,121.155449 45.234299,121.539368 
	C39.410439,121.652496 36.616814,126.023476 37.059475,130.843491 
	C37.514168,135.794510 40.738701,138.799728 46.656605,138.895493 
	C50.340782,138.955109 51.109840,140.519958 51.050968,143.756134 
	C50.905529,151.751831 51.006409,159.751999 51.006886,167.750366 
	C51.007561,179.005737 50.926506,179.852020 39.646194,178.778870 
	C27.202702,177.595093 17.741903,181.103882 10.228180,191.081345 
	C7.846579,194.243881 4.114223,196.389191 1.000002,199.000000 
z"/>
<path fill="#000000" opacity="1.000000" stroke="none" 
	d="
M513.000000,387.000000 
	C513.000000,428.975830 513.000000,470.951660 513.000000,512.963745 
	C342.455688,512.963745 171.911362,512.963745 1.000000,512.963745 
	C1.000000,472.313171 1.000000,431.625244 1.381197,390.438538 
	C6.565568,390.966980 11.367859,392.887268 16.172043,392.892029 
	C174.467621,393.048553 332.763367,393.009430 491.059113,393.056976 
	C498.999939,393.059357 506.913727,393.479401 513.000000,387.000000 
z"/>
<path fill="#183A63" opacity="1.000000" stroke="none" 
	d="
M513.000000,386.531342 
	C506.913727,393.479401 498.999939,393.059357 491.059113,393.056976 
	C332.763367,393.009430 174.467621,393.048553 16.172043,392.892029 
	C11.367859,392.887268 6.565568,390.966980 1.381197,389.969879 
	C1.000000,378.645782 1.000000,367.291534 1.347298,355.491943 
	C9.412562,344.602631 19.831289,340.728973 32.580246,341.931305 
	C37.366978,342.382721 42.234226,341.923035 47.061932,342.019928 
	C49.723545,342.073334 51.072254,341.192657 51.019249,338.311768 
	C50.912041,332.484833 50.919380,326.653229 51.022263,320.826080 
	C51.070946,318.068756 49.978756,316.934967 47.200294,316.978363 
	C41.039791,317.074554 34.869236,316.811035 28.716812,317.052216 
	C23.662230,317.250366 19.729317,315.432587 16.323137,311.854126 
	C12.764705,308.115631 9.101583,304.470642 5.356897,300.919067 
	C4.106497,299.733154 2.463519,298.961182 1.000002,298.000000 
	C1.000000,265.312439 1.000000,232.624878 1.000002,199.468658 
	C4.114223,196.389191 7.846579,194.243881 10.228180,191.081345 
	C17.741903,181.103882 27.202702,177.595093 39.646194,178.778870 
	C50.926506,179.852020 51.007561,179.005737 51.006886,167.750366 
	C51.006409,159.751999 50.905529,151.751831 51.050968,143.756134 
	C51.109840,140.519958 50.340782,138.955109 46.656605,138.895493 
	C40.738701,138.799728 37.514168,135.794510 37.059475,130.843491 
	C36.616814,126.023476 39.410439,121.652496 45.234299,121.539368 
	C64.999084,121.155449 84.782211,121.506363 104.553719,121.845619 
	C108.768822,121.917946 111.621826,124.498154 111.970306,129.073837 
	C112.342102,133.955627 110.627258,137.396484 105.651344,139.049057 
	C104.527985,139.422134 103.136208,141.231018 103.128464,142.387390 
	C102.978905,164.715042 102.962936,187.044418 103.165932,209.371216 
	C103.176872,210.575470 105.310616,212.746780 106.521538,212.794052 
	C114.507706,213.105835 122.515953,213.088409 130.505936,212.832748 
	C131.833038,212.790283 133.737488,211.337357 134.306000,210.060257 
	C139.804169,197.709305 149.653442,192.807510 162.628922,193.008255 
	C173.105637,193.170334 183.632202,192.777039 194.045715,193.679520 
	C206.948227,194.797699 214.119827,202.828171 216.585739,215.306381 
	C216.842529,216.605774 217.141357,217.896851 217.581253,219.936310 
	C224.761078,219.936310 232.042480,220.098297 239.298462,219.742432 
	C240.264557,219.695038 241.840195,217.039474 241.878372,215.559402 
	C242.118866,206.234085 241.992935,196.899628 242.011719,187.568253 
	C242.024460,181.237518 244.106873,178.546326 250.217056,176.991119 
	C261.768555,174.050964 273.279358,170.924774 284.908051,168.328110 
	C289.099640,167.392120 290.215973,165.458694 290.078430,161.486847 
	C289.824860,154.163818 289.995483,146.825668 290.011139,139.493866 
	C290.025757,132.650940 292.638763,130.034210 299.675354,130.021835 
	C320.004486,129.986038 340.333679,130.007446 360.662872,130.007278 
	C367.994720,130.007217 375.326904,129.964432 382.658264,130.024612 
	C389.057068,130.077133 391.738983,132.595078 391.934998,139.071426 
	C392.126465,145.397827 391.984253,151.734222 391.994659,158.066238 
	C392.005981,164.960297 392.009064,164.974213 398.706970,164.975800 
	C425.201569,164.982086 451.696320,164.921127 478.190613,165.011826 
	C486.958313,165.041840 495.567108,166.503876 502.400635,172.418381 
	C506.202026,175.708481 509.029358,180.124054 512.647827,184.016205 
	C513.000000,226.020889 513.000000,268.041779 512.647461,310.515503 
	C509.403717,314.522583 506.869995,318.461060 503.547577,321.551666 
	C496.478455,328.127533 487.476440,329.811554 478.205048,329.948425 
	C465.723755,330.132660 453.233032,330.190704 440.756042,329.894806 
	C436.084839,329.784027 434.888489,331.371429 434.841705,335.856903 
	C434.792664,340.563141 436.036346,342.211548 440.972168,342.114655 
	C456.279999,341.814270 471.597809,341.944824 486.911102,342.031097 
	C496.010498,342.082336 503.187347,345.893707 508.282196,353.531921 
	C509.761719,355.750061 511.422363,357.847321 513.000000,360.000000 
	C513.000000,368.687561 513.000000,377.375122 513.000000,386.531342 
M431.493347,312.005310 
	C434.326447,312.005035 437.191498,311.734039 439.985565,312.064117 
	C444.905579,312.645386 446.124451,310.620239 446.103119,305.877563 
	C445.928314,267.048462 445.921539,228.217804 446.108612,189.388794 
	C446.132385,184.455597 444.941650,182.850906 439.758301,182.876816 
	C397.596375,183.087555 355.432526,183.086670 313.270599,182.877579 
	C308.106201,182.851974 306.891296,184.419937 306.915894,189.373413 
	C307.107635,228.035721 307.019104,266.699402 307.024445,305.362671 
	C307.025360,311.980499 307.041412,312.000488 313.505554,312.001617 
	C352.502106,312.008331 391.498688,312.005188 431.493347,312.005310 
M226.500000,359.003479 
	C160.344315,359.003510 94.188622,359.001709 28.032938,359.005768 
	C19.169910,359.006317 16.398851,361.796417 16.472944,370.670288 
	C16.484932,372.106049 16.714151,373.540070 16.851234,375.067078 
	C176.425232,375.067078 335.618866,375.067078 494.755859,375.067078 
	C496.543030,363.301605 494.154297,358.839355 481.457520,358.876160 
	C396.805603,359.121643 312.152618,359.003479 226.500000,359.003479 
M80.346466,196.999649 
	C67.193985,196.999619 54.007401,197.574020 40.901123,196.795822 
	C32.290520,196.284546 25.996038,198.629364 20.656094,205.328217 
	C18.363951,208.203644 16.880846,210.659805 16.916388,214.475403 
	C17.102463,234.452087 17.616570,254.458344 16.742380,274.398438 
	C16.310837,284.241882 19.119631,291.379822 26.916756,296.784241 
	C28.549973,297.916290 30.688349,298.927551 32.604805,298.947418 
	C48.918766,299.116547 65.235252,299.051941 81.550926,299.024689 
	C82.646866,299.022858 83.742371,298.755096 85.040977,298.584320 
	C85.040977,265.514526 85.006012,232.731186 85.097771,199.948166 
	C85.106468,196.840607 83.428108,196.876190 80.346466,196.999649 
M181.452301,210.244583 
	C174.957977,210.244888 168.463577,210.224640 161.969345,210.250443 
	C152.792419,210.286911 150.081497,213.007599 150.079697,222.195099 
	C150.072220,260.328369 150.076385,298.461609 150.076263,336.594879 
	C150.076263,338.363800 150.076263,340.132721 150.076263,341.974762 
	C166.833405,341.974762 182.901047,341.974762 199.487946,341.974762 
	C199.487946,339.691833 199.487946,337.730560 199.487946,335.769287 
	C199.487991,299.634277 199.488113,263.499268 199.488068,227.364243 
	C199.488052,210.800812 198.933823,210.244675 181.452301,210.244583 
M497.896149,242.500031 
	C497.895203,228.174805 497.950012,213.849289 497.873657,199.524460 
	C497.822845,189.988419 492.736755,183.330154 483.888641,182.397812 
	C477.185791,181.691513 470.348907,182.257828 463.456421,182.257828 
	C463.456421,225.973099 463.456421,269.308472 463.456421,312.910278 
	C468.848236,312.910278 473.832336,312.915710 478.816406,312.909210 
	C491.541107,312.892639 497.874329,306.625305 497.890533,293.971527 
	C497.912079,277.147736 497.896027,260.323883 497.896149,242.500031 
M258.751831,244.499863 
	C258.751831,263.796204 258.751831,283.092529 258.751831,302.592102 
	C269.291931,305.200134 279.423157,307.707001 289.739136,310.259552 
	C289.739136,268.032745 289.739136,226.615891 289.739136,184.680038 
	C279.190247,187.331696 269.009216,189.890900 258.751801,192.469284 
	C258.751801,209.857666 258.751801,226.678757 258.751831,244.499863 
M216.994324,309.500000 
	C216.996674,318.826324 217.116531,328.154877 216.941147,337.477875 
	C216.874908,340.998810 218.189880,342.062195 221.603470,342.052521 
	C253.579117,341.962097 285.555603,341.910278 317.530548,342.085724 
	C322.742340,342.114319 321.880219,338.954407 322.027832,335.851227 
	C322.192993,332.379395 322.074158,329.656921 317.226654,329.912231 
	C311.084717,330.235748 304.682159,330.972961 298.791595,329.692963 
	C281.813049,326.003662 265.016785,321.461823 248.192032,317.088867 
	C244.112625,316.028595 241.894791,313.256287 241.965118,308.688477 
	C242.113846,299.031403 241.838531,289.366089 242.084351,279.713013 
	C242.190613,275.539642 241.215408,273.560730 236.583206,273.910675 
	C231.615234,274.286011 226.591156,274.147034 221.602951,273.947571 
	C218.176926,273.810547 216.881546,275.006500 216.941177,278.523590 
	C217.110565,288.513153 216.996674,298.507538 216.994324,309.500000 
M133.007492,309.500000 
	C133.005035,302.167480 132.863037,294.831177 133.060242,287.504028 
	C133.155792,283.953705 131.770111,282.859314 128.372742,282.946411 
	C121.378105,283.125702 114.373466,283.106110 107.377487,282.956360 
	C104.203018,282.888397 102.933044,283.954498 102.954353,287.253235 
	C103.063080,304.083984 103.063103,320.916138 102.954323,337.746887 
	C102.933006,341.046051 104.203468,342.113251 107.377800,342.043274 
	C114.207008,341.892731 121.047668,341.832520 127.872200,342.067627 
	C131.706421,342.199707 133.199890,341.027069 133.083237,336.994781 
	C132.827927,328.169830 133.006271,319.332367 133.007492,309.500000 
M344.500000,165.957672 
	C354.584229,165.957672 364.668427,165.957672 374.807678,165.957672 
	C374.807678,159.251999 374.807678,153.190094 374.807678,147.055878 
	C351.805756,147.055878 329.129578,147.055878 306.358643,147.055878 
	C306.358643,153.462875 306.358643,159.515488 306.358643,165.957672 
	C318.950897,165.957672 331.225433,165.957672 344.500000,165.957672 
M133.007202,258.358551 
	C133.006012,250.887253 132.869766,243.412476 133.062759,235.946198 
	C133.153961,232.417801 132.221436,230.791183 128.346085,230.928848 
	C121.381645,231.176254 114.397789,231.147537 107.430779,230.940475 
	C103.826859,230.833374 102.887550,232.358429 102.948959,235.670776 
	C103.102821,243.969376 103.134789,252.275833 102.940498,260.572662 
	C102.856079,264.177582 104.363213,265.133881 107.674156,265.051239 
	C114.311142,264.885620 120.970215,264.732269 127.591217,265.097900 
	C132.194000,265.352142 133.584412,263.473480 133.007202,258.358551 
M386.500000,329.994690 
	C372.333466,329.995880 358.163818,330.164093 344.002136,329.902161 
	C339.429626,329.817535 338.742279,331.875488 338.942413,335.627686 
	C339.120941,338.974152 338.337952,342.154236 343.751251,342.099884 
	C366.915344,341.867157 390.084503,341.867126 413.248596,342.099854 
	C418.661743,342.154236 417.879272,338.974518 418.057587,335.627838 
	C418.257538,331.875885 417.577576,329.730347 412.996216,329.905212 
	C404.508698,330.229187 395.999908,329.995880 386.500000,329.994690 
M85.007080,155.502411 
	C85.007080,153.669327 85.043015,151.835419 85.001297,150.003296 
	C84.711891,137.294250 87.216858,139.285202 73.879280,138.939575 
	C70.239273,138.845245 68.822739,139.963577 68.929672,143.751755 
	C69.155296,151.744263 68.865936,159.750214 69.023712,167.745987 
	C69.280243,180.746750 66.361954,178.762650 80.872002,179.042023 
	C84.311317,179.108261 85.109055,177.541183 85.040321,174.498306 
	C84.904877,168.502228 85.004631,162.500854 85.007080,155.502411 
M225.571106,236.994171 
	C224.576981,236.994675 223.567032,237.110184 222.591476,236.975815 
	C218.301819,236.385040 216.508575,238.018066 216.928848,242.488861 
	C217.268570,246.102661 216.705475,249.812927 217.178375,253.396545 
	C217.352280,254.714371 219.290588,256.742767 220.522705,256.817383 
	C226.465561,257.177032 232.453720,257.177094 238.397217,256.823883 
	C239.652679,256.749268 241.686783,254.750778 241.815399,253.481949 
	C242.247635,249.217987 242.246506,244.856766 241.821472,240.591537 
	C241.693100,239.303146 239.749649,237.333954 238.461761,237.183685 
	C234.537750,236.725815 230.527969,237.003052 225.571106,236.994171 
M85.005882,322.684692 
	C85.762512,317.976013 83.524490,316.422485 79.116768,316.966553 
	C77.648354,317.147797 76.120224,317.146484 74.651459,316.966675 
	C70.449936,316.452301 68.426186,317.874847 68.938454,322.426636 
	C69.251389,325.207245 68.931671,328.053619 69.005081,330.867615 
	C69.340675,343.731567 66.397400,341.765778 80.861443,342.040222 
	C84.241295,342.104340 85.138199,340.613922 85.038918,337.553375 
	C84.888641,332.920319 85.004204,328.278687 85.005882,322.684692 
z"/>
<path fill="#000000" opacity="1.000000" stroke="none" 
	d="
M1.000002,298.468658 
	C2.463519,298.961182 4.106497,299.733154 5.356897,300.919067 
	C9.101583,304.470642 12.764705,308.115631 16.323137,311.854126 
	C19.729317,315.432587 23.662230,317.250366 28.716812,317.052216 
	C34.869236,316.811035 41.039791,317.074554 47.200294,316.978363 
	C49.978756,316.934967 51.070946,318.068756 51.022263,320.826080 
	C50.919380,326.653229 50.912041,332.484833 51.019249,338.311768 
	C51.072254,341.192657 49.723545,342.073334 47.061932,342.019928 
	C42.234226,341.923035 37.366978,342.382721 32.580246,341.931305 
	C19.831289,340.728973 9.412562,344.602631 1.347298,355.023254 
	C1.000000,336.312439 1.000000,317.624878 1.000002,298.468658 
z"/>
<path fill="#000000" opacity="1.000000" stroke="none" 
	d="
M513.000000,359.531342 
	C511.422363,357.847321 509.761719,355.750061 508.282196,353.531921 
	C503.187347,345.893707 496.010498,342.082336 486.911102,342.031097 
	C471.597809,341.944824 456.279999,341.814270 440.972168,342.114655 
	C436.036346,342.211548 434.792664,340.563141 434.841705,335.856903 
	C434.888489,331.371429 436.084839,329.784027 440.756042,329.894806 
	C453.233032,330.190704 465.723755,330.132660 478.205048,329.948425 
	C487.476440,329.811554 496.478455,328.127533 503.547577,321.551666 
	C506.869995,318.461060 509.403717,314.522583 512.647461,310.984192 
	C513.000000,327.020905 513.000000,343.041779 513.000000,359.531342 
z"/>
<path fill="#000000" opacity="1.000000" stroke="none" 
	d="
M430.994293,312.005310 
	C391.498688,312.005188 352.502106,312.008331 313.505554,312.001617 
	C307.041412,312.000488 307.025360,311.980499 307.024445,305.362671 
	C307.019104,266.699402 307.107635,228.035721 306.915894,189.373413 
	C306.891296,184.419937 308.106201,182.851974 313.270599,182.877579 
	C355.432526,183.086670 397.596375,183.087555 439.758301,182.876816 
	C444.941650,182.850906 446.132385,184.455597 446.108612,189.388794 
	C445.921539,228.217804 445.928314,267.048462 446.103119,305.877563 
	C446.124451,310.620239 444.905579,312.645386 439.985565,312.064117 
	C437.191498,311.734039 434.326447,312.005035 430.994293,312.005310 
M424.867950,211.949539 
	C430.558990,210.162582 432.728149,207.043289 431.927673,201.797592 
	C431.240540,197.294952 428.168488,195.019989 422.462738,195.014969 
	C392.997986,194.989029 363.533264,194.991501 334.068512,195.008698 
	C327.236237,195.012680 324.123718,197.613998 324.017670,203.258011 
	C323.905579,209.225998 327.031921,211.986710 334.085846,211.989975 
	C364.049957,212.003830 394.014099,211.987595 424.867950,211.949539 
M341.521759,283.000244 
	C339.025940,283.000702 336.529999,282.986389 334.034302,283.004425 
	C327.228760,283.053619 324.111969,285.637054 324.017731,291.286621 
	C323.918335,297.241974 327.045959,299.981384 334.108063,299.991028 
	C351.578949,300.014893 369.049866,300.000336 386.520782,299.999756 
	C398.667206,299.999329 410.813934,300.044952 422.959961,299.974304 
	C429.033112,299.938995 432.104584,296.853821 431.981842,291.218994 
	C431.862946,285.760406 428.752411,283.023804 422.381714,283.016205 
	C395.759430,282.984406 369.137085,283.001251 341.521759,283.000244 
M328.496155,254.343369 
	C327.008759,256.415588 324.605377,258.326202 324.205811,260.590393 
	C323.011505,267.358643 326.857697,270.978638 334.597504,270.986816 
	C363.411255,271.017242 392.225098,271.004486 421.038879,270.983887 
	C422.526825,270.982819 424.080566,270.993164 425.490479,270.596069 
	C430.235260,269.259949 432.815125,265.267151 431.893433,260.297913 
	C431.144867,256.261871 428.590942,253.989807 424.252625,253.998093 
	C392.609100,254.058487 360.965485,254.092270 328.496155,254.343369 
M363.500000,223.999710 
	C353.338989,224.005936 343.175507,223.877747 333.017914,224.067947 
	C326.752411,224.185272 323.844269,227.278183 324.020294,232.900024 
	C324.185944,238.191498 327.239319,240.925934 333.237640,240.982010 
	C339.900055,241.044296 346.563477,241.000244 353.226440,241.000031 
	C376.380249,240.999268 399.534119,241.021790 422.687866,240.979843 
	C428.898041,240.968597 431.996155,238.037491 431.983948,232.473785 
	C431.971924,226.990997 428.641754,224.052048 421.968018,224.028397 
	C402.812225,223.960495 383.656036,224.001511 363.500000,223.999710 
z"/>
<path fill="#A2D3FF" opacity="1.000000" stroke="none" 
	d="
M227.000000,359.003479 
	C312.152618,359.003479 396.805603,359.121643 481.457520,358.876160 
	C494.154297,358.839355 496.543030,363.301605 494.755859,375.067078 
	C335.618866,375.067078 176.425232,375.067078 16.851234,375.067078 
	C16.714151,373.540070 16.484932,372.106049 16.472944,370.670288 
	C16.398851,361.796417 19.169910,359.006317 28.032938,359.005768 
	C94.188622,359.001709 160.344315,359.003510 227.000000,359.003479 
z"/>
<path fill="#A2D3FF" opacity="1.000000" stroke="none" 
	d="
M80.828293,196.999939 
	C83.428108,196.876190 85.106468,196.840607 85.097771,199.948166 
	C85.006012,232.731186 85.040977,265.514526 85.040977,298.584320 
	C83.742371,298.755096 82.646866,299.022858 81.550926,299.024689 
	C65.235252,299.051941 48.918766,299.116547 32.604805,298.947418 
	C30.688349,298.927551 28.549973,297.916290 26.916756,296.784241 
	C19.119631,291.379822 16.310837,284.241882 16.742380,274.398438 
	C17.616570,254.458344 17.102463,234.452087 16.916388,214.475403 
	C16.880846,210.659805 18.363951,208.203644 20.656094,205.328217 
	C25.996038,198.629364 32.290520,196.284546 40.901123,196.795822 
	C54.007401,197.574020 67.193985,196.999619 80.828293,196.999939 
M67.936539,220.069427 
	C66.322929,215.543198 62.891129,212.858749 58.423565,214.257233 
	C55.601814,215.140518 52.088539,218.166962 51.552483,220.779388 
	C51.013233,223.407364 53.080296,227.519073 55.322315,229.456619 
	C56.995987,230.903015 61.007820,230.674911 63.544998,229.853561 
	C67.526848,228.564560 68.484238,224.861252 67.936539,220.069427 
z"/>
<path fill="#A0D1FD" opacity="1.000000" stroke="none" 
	d="
M181.941956,210.244583 
	C198.933823,210.244675 199.488052,210.800812 199.488068,227.364243 
	C199.488113,263.499268 199.487991,299.634277 199.487946,335.769287 
	C199.487946,337.730560 199.487946,339.691833 199.487946,341.974762 
	C182.901047,341.974762 166.833405,341.974762 150.076263,341.974762 
	C150.076263,340.132721 150.076263,338.363800 150.076263,336.594879 
	C150.076385,298.461609 150.072220,260.328369 150.079697,222.195099 
	C150.081497,213.007599 152.792419,210.286911 161.969345,210.250443 
	C168.463577,210.224640 174.957977,210.244888 181.941956,210.244583 
M183.150574,244.509674 
	C183.149017,241.346649 183.187668,238.182999 183.137115,235.020752 
	C183.046066,229.324966 179.991425,225.544510 175.319717,225.262619 
	C170.590317,224.977264 166.805725,228.934128 166.354370,234.663193 
	C166.289139,235.491043 166.318878,236.327042 166.318832,237.159271 
	C166.317261,263.295837 166.304123,289.432434 166.344193,315.568939 
	C166.347214,317.545837 166.454239,319.600922 166.990387,321.483673 
	C168.462067,326.651764 174.439194,329.022125 179.015106,326.371552 
	C182.458862,324.376801 183.200333,321.181244 183.188171,317.423553 
	C183.110641,293.451385 183.149796,269.478882 183.150574,244.509674 
z"/>
<path fill="#A1D2FE" opacity="1.000000" stroke="none" 
	d="
M497.896149,243.000031 
	C497.896027,260.323883 497.912079,277.147736 497.890533,293.971527 
	C497.874329,306.625305 491.541107,312.892639 478.816406,312.909210 
	C473.832336,312.915710 468.848236,312.910278 463.456421,312.910278 
	C463.456421,269.308472 463.456421,225.973099 463.456421,182.257828 
	C470.348907,182.257828 477.185791,181.691513 483.888641,182.397812 
	C492.736755,183.330154 497.822845,189.988419 497.873657,199.524460 
	C497.950012,213.849289 497.895203,228.174805 497.896149,243.000031 
z"/>
<path fill="#A2D3FF" opacity="1.000000" stroke="none" 
	d="
M258.751831,243.999847 
	C258.751801,226.678757 258.751801,209.857666 258.751801,192.469284 
	C269.009216,189.890900 279.190247,187.331696 289.739136,184.680038 
	C289.739136,226.615891 289.739136,268.032745 289.739136,310.259552 
	C279.423157,307.707001 269.291931,305.200134 258.751831,302.592102 
	C258.751831,283.092529 258.751831,263.796204 258.751831,243.999847 
z"/>
<path fill="#000000" opacity="1.000000" stroke="none" 
	d="
M216.994324,309.000000 
	C216.996674,298.507538 217.110565,288.513153 216.941177,278.523590 
	C216.881546,275.006500 218.176926,273.810547 221.602951,273.947571 
	C226.591156,274.147034 231.615234,274.286011 236.583206,273.910675 
	C241.215408,273.560730 242.190613,275.539642 242.084351,279.713013 
	C241.838531,289.366089 242.113846,299.031403 241.965118,308.688477 
	C241.894791,313.256287 244.112625,316.028595 248.192032,317.088867 
	C265.016785,321.461823 281.813049,326.003662 298.791595,329.692963 
	C304.682159,330.972961 311.084717,330.235748 317.226654,329.912231 
	C322.074158,329.656921 322.192993,332.379395 322.027832,335.851227 
	C321.880219,338.954407 322.742340,342.114319 317.530548,342.085724 
	C285.555603,341.910278 253.579117,341.962097 221.603470,342.052521 
	C218.189880,342.062195 216.874908,340.998810 216.941147,337.477875 
	C217.116531,328.154877 216.996674,318.826324 216.994324,309.000000 
z"/>
<path fill="#000000" opacity="1.000000" stroke="none" 
	d="
M133.007507,310.000000 
	C133.006271,319.332367 132.827927,328.169830 133.083237,336.994781 
	C133.199890,341.027069 131.706421,342.199707 127.872200,342.067627 
	C121.047668,341.832520 114.207008,341.892731 107.377800,342.043274 
	C104.203468,342.113251 102.933006,341.046051 102.954323,337.746887 
	C103.063103,320.916138 103.063080,304.083984 102.954353,287.253235 
	C102.933044,283.954498 104.203018,282.888397 107.377487,282.956360 
	C114.373466,283.106110 121.378105,283.125702 128.372742,282.946411 
	C131.770111,282.859314 133.155792,283.953705 133.060242,287.504028 
	C132.863037,294.831177 133.005035,302.167480 133.007507,310.000000 
z"/>
<path fill="#A1D2FE" opacity="1.000000" stroke="none" 
	d="
M344.000000,165.957672 
	C331.225433,165.957672 318.950897,165.957672 306.358643,165.957672 
	C306.358643,159.515488 306.358643,153.462875 306.358643,147.055878 
	C329.129578,147.055878 351.805756,147.055878 374.807678,147.055878 
	C374.807678,153.190094 374.807678,159.251999 374.807678,165.957672 
	C364.668427,165.957672 354.584229,165.957672 344.000000,165.957672 
z"/>
<path fill="#000000" opacity="1.000000" stroke="none" 
	d="
M133.006760,258.835632 
	C133.584412,263.473480 132.194000,265.352142 127.591217,265.097900 
	C120.970215,264.732269 114.311142,264.885620 107.674156,265.051239 
	C104.363213,265.133881 102.856079,264.177582 102.940498,260.572662 
	C103.134789,252.275833 103.102821,243.969376 102.948959,235.670776 
	C102.887550,232.358429 103.826859,230.833374 107.430779,230.940475 
	C114.397789,231.147537 121.381645,231.176254 128.346085,230.928848 
	C132.221436,230.791183 133.153961,232.417801 133.062759,235.946198 
	C132.869766,243.412476 133.006012,250.887253 133.006760,258.835632 
z"/>
<path fill="#000000" opacity="1.000000" stroke="none" 
	d="
M387.000000,329.994690 
	C395.999908,329.995880 404.508698,330.229187 412.996216,329.905212 
	C417.577576,329.730347 418.257538,331.875885 418.057587,335.627838 
	C417.879272,338.974518 418.661743,342.154236 413.248596,342.099854 
	C390.084503,341.867126 366.915344,341.867157 343.751251,342.099884 
	C338.337952,342.154236 339.120941,338.974152 338.942413,335.627686 
	C338.742279,331.875488 339.429626,329.817535 344.002136,329.902161 
	C358.163818,330.164093 372.333466,329.995880 387.000000,329.994690 
z"/>
<path fill="#000000" opacity="1.000000" stroke="none" 
	d="
M85.007095,156.002045 
	C85.004631,162.500854 84.904877,168.502228 85.040321,174.498306 
	C85.109055,177.541183 84.311317,179.108261 80.872002,179.042023 
	C66.361954,178.762650 69.280243,180.746750 69.023712,167.745987 
	C68.865936,159.750214 69.155296,151.744263 68.929672,143.751755 
	C68.822739,139.963577 70.239273,138.845245 73.879280,138.939575 
	C87.216858,139.285202 84.711891,137.294250 85.001297,150.003296 
	C85.043015,151.835419 85.007080,153.669327 85.007095,156.002045 
z"/>
<path fill="#000000" opacity="1.000000" stroke="none" 
	d="
M226.061340,236.994171 
	C230.527969,237.003052 234.537750,236.725815 238.461761,237.183685 
	C239.749649,237.333954 241.693100,239.303146 241.821472,240.591537 
	C242.246506,244.856766 242.247635,249.217987 241.815399,253.481949 
	C241.686783,254.750778 239.652679,256.749268 238.397217,256.823883 
	C232.453720,257.177094 226.465561,257.177032 220.522705,256.817383 
	C219.290588,256.742767 217.352280,254.714371 217.178375,253.396545 
	C216.705475,249.812927 217.268570,246.102661 216.928848,242.488861 
	C216.508575,238.018066 218.301819,236.385040 222.591476,236.975815 
	C223.567032,237.110184 224.576981,236.994675 226.061340,236.994171 
z"/>
<path fill="#000000" opacity="1.000000" stroke="none" 
	d="
M85.006348,323.162689 
	C85.004204,328.278687 84.888641,332.920319 85.038918,337.553375 
	C85.138199,340.613922 84.241295,342.104340 80.861443,342.040222 
	C66.397400,341.765778 69.340675,343.731567 69.005081,330.867615 
	C68.931671,328.053619 69.251389,325.207245 68.938454,322.426636 
	C68.426186,317.874847 70.449936,316.452301 74.651459,316.966675 
	C76.120224,317.146484 77.648354,317.147797 79.116768,316.966553 
	C83.524490,316.422485 85.762512,317.976013 85.006348,323.162689 
z"/>
<path fill="#173962" opacity="1.000000" stroke="none" 
	d="
M424.423096,211.965942 
	C394.014099,211.987595 364.049957,212.003830 334.085846,211.989975 
	C327.031921,211.986710 323.905579,209.225998 324.017670,203.258011 
	C324.123718,197.613998 327.236237,195.012680 334.068512,195.008698 
	C363.533264,194.991501 392.997986,194.989029 422.462738,195.014969 
	C428.168488,195.019989 431.240540,197.294952 431.927673,201.797592 
	C432.728149,207.043289 430.558990,210.162582 424.423096,211.965942 
z"/>
<path fill="#173962" opacity="1.000000" stroke="none" 
	d="
M342.018250,283.000244 
	C369.137085,283.001251 395.759430,282.984406 422.381714,283.016205 
	C428.752411,283.023804 431.862946,285.760406 431.981842,291.218994 
	C432.104584,296.853821 429.033112,299.938995 422.959961,299.974304 
	C410.813934,300.044952 398.667206,299.999329 386.520782,299.999756 
	C369.049866,300.000336 351.578949,300.014893 334.108063,299.991028 
	C327.045959,299.981384 323.918335,297.241974 324.017731,291.286621 
	C324.111969,285.637054 327.228760,283.053619 334.034302,283.004425 
	C336.529999,282.986389 339.025940,283.000702 342.018250,283.000244 
z"/>
<path fill="#173962" opacity="1.000000" stroke="none" 
	d="
M328.909027,254.238922 
	C360.965485,254.092270 392.609100,254.058487 424.252625,253.998093 
	C428.590942,253.989807 431.144867,256.261871 431.893433,260.297913 
	C432.815125,265.267151 430.235260,269.259949 425.490479,270.596069 
	C424.080566,270.993164 422.526825,270.982819 421.038879,270.983887 
	C392.225098,271.004486 363.411255,271.017242 334.597504,270.986816 
	C326.857697,270.978638 323.011505,267.358643 324.205811,260.590393 
	C324.605377,258.326202 327.008759,256.415588 328.909027,254.238922 
z"/>
<path fill="#173962" opacity="1.000000" stroke="none" 
	d="
M364.000000,223.999710 
	C383.656036,224.001511 402.812225,223.960495 421.968018,224.028397 
	C428.641754,224.052048 431.971924,226.990997 431.983948,232.473785 
	C431.996155,238.037491 428.898041,240.968597 422.687866,240.979843 
	C399.534119,241.021790 376.380249,240.999268 353.226440,241.000031 
	C346.563477,241.000244 339.900055,241.044296 333.237640,240.982010 
	C327.239319,240.925934 324.185944,238.191498 324.020294,232.900024 
	C323.844269,227.278183 326.752411,224.185272 333.017914,224.067947 
	C343.175507,223.877747 353.338989,224.005936 364.000000,223.999710 
z"/>
<path fill="#193C65" opacity="1.000000" stroke="none" 
	d="
M67.980751,220.472778 
	C68.484238,224.861252 67.526848,228.564560 63.544998,229.853561 
	C61.007820,230.674911 56.995987,230.903015 55.322315,229.456619 
	C53.080296,227.519073 51.013233,223.407364 51.552483,220.779388 
	C52.088539,218.166962 55.601814,215.140518 58.423565,214.257233 
	C62.891129,212.858749 66.322929,215.543198 67.980751,220.472778 
z"/>
<path fill="#1A3D66" opacity="1.000000" stroke="none" 
	d="
M183.150574,245.008087 
	C183.149796,269.478882 183.110641,293.451385 183.188171,317.423553 
	C183.200333,321.181244 182.458862,324.376801 179.015106,326.371552 
	C174.439194,329.022125 168.462067,326.651764 166.990387,321.483673 
	C166.454239,319.600922 166.347214,317.545837 166.344193,315.568939 
	C166.304123,289.432434 166.317261,263.295837 166.318832,237.159271 
	C166.318878,236.327042 166.289139,235.491043 166.354370,234.663193 
	C166.805725,228.934128 170.590317,224.977264 175.319717,225.262619 
	C179.991425,225.544510 183.046066,229.324966 183.137115,235.020752 
	C183.187668,238.182999 183.149017,241.346649 183.150574,245.008087 
z"/>
</svg>